:SAMPLES-PER-SECOND 30
:FULLY-SPECIFIED
:DEGREES
480
root  -74.2032 31.015 -54.5899 -177.24 48.3382 167.267
RightUpLeg  -35.9507 -3.94554 10.9709
RightLeg  46.0199 -2.87724 -2.65311
RightFoot  -20.9941 0.128593 1.0716
RightToes  18.0636 0.0109475 0.175127
Spine  9.95651 -6.50608 1.47556
Spine1  17.8422 -14.5238 3.99193
HEad  6.07288 -39.8595 32.91
LeftShoulder1  0 -2.42657e-020 -4.95415e-022
LeftArm  10.4543 -14.995 -95.8204
LeftForeArm  27.3075 -34.3092 -6.90647
LeftHand  -0.0570605 -7.06395 0.555042
RightShoulder  0 2.42657e-020 1.07489e-018
RightArm  -36.3655 -10.3703 83.6764
RightForeArm  14.6799 63.3804 20.6862
RightHand  -0.388368 18.7374 -1.98425
LeftUpLeg  -39.7701 -1.80883 0.955756
LeftLeg  79.2506 0.50583 1.938
LeftFoot  -4.65268 -0.0349065 -0.859235
LeftToes  -7.47941 3.33339e-006 -4.73431e-007
481
root  -74.0437 31.5378 -55.7189 -177.411 55.7445 165.969
RightUpLeg  -33.6612 1.59697 8.85903
RightLeg  42.9824 -1.91765 -1.59693
RightFoot  -19.5049 0.0346574 0.579212
RightToes  16.1856 0.0118735 0.15677
Spine  9.65874 -6.12813 0.954
Spine1  17.8177 -12.9565 1.69734
HEad  2.10284 -38.0801 34.5169
LeftShoulder1  0 -2.42657e-020 -4.95415e-022
LeftArm  11.62 -13.0568 -93.8981
LeftForeArm  24.0165 -40.0603 -8.52921
LeftHand  -0.0914831 -7.04288 1.11768
RightShoulder  0 2.42657e-020 1.07489e-018
RightArm  -28.5434 -14.6396 82.2553
RightForeArm  31.5846 74.902 41.1637
RightHand  -1.40146 18.0005 -8.46416
LeftUpLeg  -41.9788 -5.34513 4.50241
LeftLeg  72.075 1.4749 3.70076
LeftFoot  -8.25132 -0.0759876 -1.05345
LeftToes  -5.38985 3.33339e-006 -4.73431e-007
482
root  -73.7484 32.0338 -56.8446 -178.182 63.0119 164.579
RightUpLeg  -30.9742 7.74144 6.84632
RightLeg  39.556 -1.38624 -1.02393
RightFoot  -17.8494 -0.00670956 0.334836
RightToes  13.9555 0.0124614 0.134953
Spine  9.51648 -5.72109 0.577663
Spine1  17.8364 -11.3459 -0.222998
HEad  -1.2875 -35.9617 35.1025
LeftShoulder1  0 -2.42657e-020 -4.95415e-022
LeftArm  13.142 -10.5845 -90.6868
LeftForeArm  23.5711 -51.7183 -12.9384
LeftHand  -0.147809 -7.11223 2.01009
RightShoulder  0 2.42657e-020 1.07489e-018
RightArm  -21.3026 -17.2039 79.7191
RightForeArm  86.2031 79.8666 85.9804
RightHand  -2.50484 19.1731 -14.3857
LeftUpLeg  -42.49 -6.87747 7.94556
LeftLeg  62.8669 1.13823 1.89572
LeftFoot  -10.1078 -0.0610759 -0.690618
LeftToes  -4.95339 3.33339e-006 -4.73431e-007
483
root  -73.4703 32.3976 -58.0388 177.965 70.859 159.534
RightUpLeg  -30.0073 13.7647 3.75569
RightLeg  37.6782 -0.115906 -0.0968629
RightFoot  -16.7357 -0.0751807 -0.13356
RightToes  11.0202 0.0125046 0.10626
Spine  9.36694 -5.67155 -0.0241751
Spine1  17.5547 -10.9026 -1.7456
HEad  -3.89093 -33.1172 35.0995
LeftShoulder1  0 -2.42657e-020 -4.95415e-022
LeftArm  14.9644 -8.11718 -86.2757
LeftForeArm  35.7066 -65.899 -23.3426
LeftHand  -0.399286 -5.83377 7.46305
RightShoulder  0 2.42657e-020 1.07489e-018
RightArm  -11.624 -16.6021 76.2989
RightForeArm  140.694 77.6323 125.372
RightHand  -4.36635 18.8307 -25.5324
LeftUpLeg  -42.3913 -7.61634 10.2305
LeftLeg  52.5337 -0.0357158 -0.0489811
LeftFoot  -10.4975 -0.0229934 -0.250304
LeftToes  -10.9085 3.33339e-006 -4.73431e-007
484
root  -73.063 32.6899 -59.2455 170.381 77.5741 150.729
RightUpLeg  -29.3868 20.2547 0.466283
RightLeg  35.6161 0.114936 0.0560121
RightFoot  -15.9348 -0.0815965 -0.205451
RightToes  6.8433 0.0117967 0.0656129
Spine  8.96885 -5.77651 -0.434343
Spine1  16.7333 -10.9756 -2.63149
HEad  -5.40697 -30.3534 34.3757
LeftShoulder1  0 -2.42657e-020 -4.95415e-022
LeftArm  14.5491 -5.86774 -83.2854
LeftForeArm  53.0906 -75.3013 -42.6504
LeftHand  -0.845419 -4.96189 18.9833
RightShoulder  0 2.42657e-020 1.07489e-018
RightArm  -2.32504 -14.3129 72.6454
RightForeArm  165.426 74.3419 140.309
RightHand  -5.61028 16.1671 -37.7115
LeftUpLeg  -42.257 -9.58565 12.993
LeftLeg  42.4377 -0.69405 -0.562913
LeftFoot  -11.4049 -0.006403 -0.0641308
LeftToes  -14.061 3.33339e-006 -4.73431e-007
485
root  -72.5335 32.8378 -60.3503 152.351 83.8007 131.524
RightUpLeg  -29.2284 27.826 -2.27936
RightLeg  33.5713 -1.19085 -0.697129
RightFoot  -15.7375 -0.025817 0.190757
RightToes  4.86128 0.0101322 0.046455
Spine  8.53221 -5.646 -0.519773
Spine1  15.7448 -10.7204 -2.6767
HEad  -6.8497 -27.3118 33.1098
LeftShoulder1  0 -2.42657e-020 -4.95415e-022
LeftArm  13.5069 -5.27026 -80.3327
LeftForeArm  95.7148 -79.6802 -78.0396
LeftHand  -1.22671 -5.84755 23.3335
RightShoulder  0 2.42657e-020 1.07489e-018
RightArm  3.28481 -11.566 69.8913
RightForeArm  -175.876 71.6882 147.26
RightHand  -6.48568 13.4159 -51.0951
LeftUpLeg  -42.1075 -9.39587 15.8073
LeftLeg  34.2846 -0.508398 -0.305059
LeftFoot  -12.6133 -0.0119427 -0.10807
LeftToes  -16.3922 3.33339e-006 -4.73431e-007
486
root  -71.8365 32.8232 -61.4881 81.1718 86.0588 59.9863
RightUpLeg  -28.9096 33.5724 -4.78502
RightLeg  32.9148 -1.40266 -0.796732
RightFoot  -16.4819 -0.0175065 0.256685
RightToes  2.5911 0.00589126 0.0246543
Spine  8.21069 -5.43347 -0.57729
Spine1  14.9821 -10.2887 -2.72197
HEad  -7.89831 -24.5285 31.3278
LeftShoulder1  0 -2.42657e-020 -4.95415e-022
LeftArm  14.6342 -8.05244 -76.8646
LeftForeArm  131.549 -79.3526 -108.407
LeftHand  -1.75659 -6.50221 29.8672
RightShoulder  0 2.42657e-020 1.07489e-018
RightArm  5.12159 -8.82413 68.0076
RightForeArm  -161.794 69.1073 152.052
RightHand  -6.89998 12.1108 -58.8757
LeftUpLeg  -41.8121 -9.8457 17.58
LeftLeg  30.1187 -0.425479 -0.215281
LeftFoot  -14.4314 -0.0139477 -0.110173
LeftToes  -17.197 3.33339e-006 -4.73431e-007
